<?xml version="1.0" standalone="no"?>
<!DOCTYPE svg PUBLIC "-//W3C//DTD SVG 20010904//EN"
 "http://www.w3.org/TR/2001/REC-SVG-20010904/DTD/svg10.dtd">
<svg version="1.0" xmlns="http://www.w3.org/2000/svg"
 width="311.000000pt" height="311.000000pt" viewBox="0 0 311.000000 311.000000"
 preserveAspectRatio="xMidYMid meet">
<metadata>
Created by potrace 1.11, written by Peter Selinger 2001-2013
</metadata>
<g transform="translate(0.000000,311.000000) scale(0.100000,-0.100000)"
fill="#000000" stroke="none">
<path d="M0 1555 l0 -1555 1555 0 1555 0 0 1555 0 1555 -1555 0 -1555 0 0
-1555z m1306 1131 c33 -33 40 -57 34 -124 -1 -13 -41 -106 -90 -208 -49 -101
-87 -184 -84 -184 3 0 87 66 187 148 99 81 212 169 251 195 253 173 267 180
314 152 39 -24 62 -65 62 -112 0 -52 -18 -75 -92 -116 -35 -19 -74 -45 -88
-57 -14 -12 -81 -63 -150 -112 -69 -50 -149 -114 -178 -142 -29 -28 -55 -50
-57 -48 -19 10 -42 -3 -55 -31 -8 -18 -30 -40 -50 -49 -67 -34 -140 -92 -140
-113 0 -48 34 -148 86 -253 67 -133 160 -239 229 -260 22 -6 42 -8 45 -4 4 4
40 88 80 187 40 99 90 214 111 255 28 58 35 80 27 94 -6 10 -6 32 -1 54 7 32
16 41 64 65 31 15 78 30 105 33 27 3 72 8 100 10 66 7 151 -9 225 -42 142 -64
206 -220 144 -352 -37 -79 -80 -138 -178 -238 l-88 -92 48 -23 c66 -32 139
-108 171 -177 51 -111 27 -249 -71 -411 -91 -150 -208 -245 -360 -293 -72 -22
-216 -26 -275 -7 -44 14 -152 89 -180 124 -11 14 -29 25 -40 25 -28 0 -76 42
-96 84 -21 45 -20 90 4 151 84 214 121 328 108 336 -7 5 -17 9 -21 9 -15 0
-93 58 -152 112 -93 85 -203 264 -240 392 -9 32 -18 56 -20 54 -2 -2 -33 -102
-70 -223 -74 -248 -112 -340 -144 -350 -30 -9 -108 31 -126 64 -21 41 -3 135
66 346 32 99 65 200 73 225 67 209 162 463 211 565 25 52 45 100 45 108 0 8
13 38 30 68 16 30 37 75 46 101 32 98 116 128 180 64z"/>
<path d="M2010 1853 c-33 -6 -50 -21 -50 -45 0 -11 -14 -34 -32 -51 -18 -18
-31 -40 -30 -49 2 -9 -29 -88 -68 -175 -39 -87 -74 -164 -77 -172 -7 -15 4
-13 96 21 85 32 215 174 308 337 52 92 54 115 12 130 -32 11 -110 13 -159 4z"/>
<path d="M1771 1159 c-47 -10 -88 -22 -92 -26 -9 -9 -138 -363 -146 -400 -3
-13 -1 -23 5 -23 5 0 35 -20 67 -44 69 -54 111 -63 196 -42 85 22 153 61 220
126 78 76 111 145 117 241 4 74 4 76 -29 114 -68 77 -167 93 -338 54z"/>
</g>
</svg>
